<?xml version="1.0" standalone="no"?>
<!DOCTYPE svg PUBLIC "-//W3C//DTD SVG 20010904//EN"
 "http://www.w3.org/TR/2001/REC-SVG-20010904/DTD/svg10.dtd">
<svg version="1.0" xmlns="http://www.w3.org/2000/svg"
 width="500.000000pt" height="500.000000pt" viewBox="0 0 500.000000 500.000000"
 preserveAspectRatio="xMidYMid meet">

<g transform="translate(0.000000,500.000000) scale(0.100000,-0.100000)"
fill="#000000" stroke="none">
<path d="M2410 3911 c-14 -4 -140 -77 -280 -161 -140 -84 -273 -163 -294 -174
-43 -23 -106 -80 -106 -97 0 -6 6 -7 13 -3 6 4 2 -3 -10 -14 -33 -32 -37 -98
-30 -499 8 -459 -15 -409 257 -565 91 -53 197 -114 235 -136 64 -38 70 -40 73
-22 3 16 7 18 21 10 10 -5 21 -6 25 -2 4 3 4 -1 0 -11 -5 -15 -9 -15 -23 -5
-14 12 -14 11 -3 -4 8 -9 19 -15 27 -12 7 3 16 -3 20 -15 3 -12 10 -19 14 -16
4 2 17 -4 28 -14 20 -19 20 -18 23 18 4 57 7 126 9 189 2 55 2 56 16 32 13
-22 14 -1 15 192 0 153 -3 219 -12 224 -7 4 -8 3 -4 -4 13 -21 -28 -13 -84 16
-30 16 -90 47 -132 70 l-78 41 0 -82 0 -82 60 -33 c33 -18 61 -36 64 -40 7
-12 11 -281 3 -288 -3 -4 -28 7 -54 24 -26 16 -91 54 -143 84 -136 78 -168
100 -180 126 -6 15 -10 153 -10 381 0 388 1 397 51 371 14 -8 19 -8 15 -1 -15
24 32 8 133 -45 148 -78 361 -201 391 -225 14 -12 19 -17 11 -13 -9 5 -12 3
-7 -5 4 -6 11 -9 15 -6 5 2 17 -2 27 -10 13 -10 15 -14 5 -15 -10 0 -9 -5 5
-17 36 -33 44 -70 44 -205 0 -113 2 -129 15 -124 14 5 16 -26 13 -282 -2 -158
-7 -295 -12 -305 -7 -14 -2 -13 33 6 66 38 99 73 112 119 8 32 10 140 5 405
-7 357 -6 362 14 373 24 13 28 53 5 44 -9 -4 -15 0 -15 9 0 8 -10 17 -21 20
-15 4 -20 11 -15 22 4 11 2 15 -6 12 -7 -2 -24 4 -37 14 -25 20 -46 25 -36 10
3 -5 1 -12 -4 -16 -6 -3 -8 3 -6 15 4 21 -88 80 -402 256 -67 38 -123 72 -123
75 0 4 84 57 187 118 l187 111 65 -37 c89 -49 98 -54 313 -177 l186 -106 37
21 c20 12 38 19 41 17 2 -3 5 -113 5 -244 0 -218 -2 -240 -18 -252 -10 -8 -76
-47 -146 -89 -71 -41 -130 -80 -133 -87 -3 -7 -4 -51 -2 -99 l3 -86 150 92
c207 127 235 146 270 193 31 40 32 46 38 170 16 300 9 365 -45 425 -20 23
-151 109 -165 109 -3 0 -17 8 -31 18 -15 11 -52 32 -82 49 -30 16 -139 78
-242 137 -189 109 -233 125 -288 107z m-606 -426 c3 -9 0 -15 -8 -15 -7 0 -13
7 -13 15 0 8 4 15 8 15 4 0 9 -7 13 -15z"/>
<path d="M2325 3594 c-73 -43 -73 -43 -56 -54 9 -5 31 3 64 23 l49 30 52 -26
c28 -15 92 -49 141 -77 50 -28 98 -53 108 -56 26 -9 21 -18 -24 -43 -26 -15
-37 -27 -31 -33 6 -6 32 3 72 25 62 35 62 35 39 50 -32 19 -181 103 -249 140
-30 17 -64 36 -75 44 -26 17 -23 18 -90 -23z"/>
<path d="M2660 3190 c0 -5 5 -10 11 -10 5 0 7 5 4 10 -3 6 -8 10 -11 10 -2 0
-4 -4 -4 -10z"/>
<path d="M3200 2742 c-9 -4 -102 -59 -208 -122 l-192 -114 0 -129 c0 -119 1
-129 18 -122 9 3 104 58 210 122 l193 116 -2 103 c-3 130 -19 126 -19 -4 l0
-97 -52 -32 c-29 -17 -69 -40 -88 -51 -19 -10 -78 -45 -130 -76 -52 -31 -98
-56 -102 -56 -4 0 -8 51 -8 113 l0 112 132 80 c73 44 136 82 142 84 6 2 30 17
55 32 29 19 47 25 52 18 3 -6 8 -2 12 10 3 12 4 21 4 20 -1 0 -9 -3 -17 -7z"/>
<path d="M3100 2576 c0 -18 -154 -108 -173 -100 -8 3 -18 1 -21 -5 -4 -5 2
-12 13 -16 28 -9 191 89 191 115 0 11 -2 20 -5 20 -3 0 -5 -6 -5 -14z"/>
<path d="M2445 2238 c3 -40 9 -76 11 -80 9 -15 61 -8 77 10 10 11 17 35 17 58
-1 37 -4 40 -49 62 -26 12 -51 22 -56 22 -4 0 -4 -33 0 -72z"/>
<path d="M2710 1575 l0 -245 35 0 35 0 0 245 0 245 -35 0 -35 0 0 -245z"/>
<path d="M1464 1799 c-44 -12 -79 -52 -94 -103 -18 -64 -10 -241 13 -288 33
-66 53 -73 218 -73 109 0 150 3 162 14 14 11 17 34 17 127 l0 114 -105 0 -105
0 0 -30 0 -30 65 0 65 0 0 -71 0 -71 -105 4 c-145 4 -149 8 -153 166 -2 81 1
125 10 142 21 39 84 53 211 45 l108 -6 -3 28 c-2 22 -9 29 -33 34 -45 10 -236
8 -271 -2z"/>
<path d="M1898 1693 c-12 -3 -18 -14 -18 -31 l0 -27 99 3 c119 4 141 -4 141
-53 l0 -35 -95 0 c-140 0 -175 -23 -175 -114 0 -33 6 -52 24 -73 24 -28 25
-28 149 -28 88 0 132 4 150 14 27 14 27 15 26 130 -1 197 -22 222 -189 220
-52 -1 -103 -3 -112 -6z m222 -248 l0 -55 -88 0 c-96 0 -112 7 -112 51 0 44
32 59 122 59 l78 0 0 -55z"/>
<path d="M2313 1694 c-7 -3 -13 -18 -13 -32 l0 -27 106 3 c119 4 144 -7 144
-60 l0 -28 -100 0 c-146 0 -180 -22 -180 -115 0 -56 29 -90 85 -101 52 -9 216
1 244 15 22 12 23 15 19 152 -3 136 -3 139 -31 166 -27 27 -31 28 -145 30 -64
1 -123 0 -129 -3z m232 -249 l0 -50 -88 -3 c-101 -3 -120 5 -115 52 4 43 36
57 128 54 l75 -3 0 -50z"/>
<path d="M2933 1685 c-54 -23 -73 -66 -73 -168 0 -146 28 -179 160 -185 49 -2
110 -1 135 2 41 7 45 10 45 34 l0 27 -113 -3 c-100 -3 -115 -1 -130 15 -9 11
-18 30 -19 44 l-3 24 117 5 c105 4 120 7 140 28 18 18 23 33 22 76 0 61 -13
82 -61 103 -42 17 -179 16 -220 -2z m195 -61 c24 -17 30 -62 10 -82 -18 -18
-208 -17 -208 2 0 41 15 78 34 86 37 15 140 11 164 -6z"/>
<path d="M3345 1691 c-37 -15 -58 -49 -58 -91 0 -84 28 -103 162 -114 79 -7
101 -17 101 -47 0 -41 -26 -50 -144 -48 l-111 2 -3 -25 c-4 -32 22 -38 150
-38 133 0 178 29 178 114 0 69 -64 106 -183 106 -40 0 -58 5 -70 18 -21 23
-21 36 -1 57 13 13 36 16 123 14 l106 -2 3 25 c3 21 -2 26 -29 32 -44 9 -200
6 -224 -3z"/>
<path d="M1430 1150 c0 -53 4 -90 10 -90 6 0 10 14 10 30 0 28 2 30 39 30 47
0 71 20 71 60 0 42 -24 60 -81 60 l-49 0 0 -90z m105 30 c0 -34 -1 -35 -42
-38 l-43 -3 0 41 0 41 43 -3 c41 -3 42 -4 42 -38z"/>
<path d="M1658 1234 c-5 -4 -8 -45 -8 -91 l0 -83 55 0 c30 0 55 5 55 10 0 6
-20 10 -45 10 l-44 0 -3 81 c-2 44 -6 77 -10 73z"/>
<path d="M1875 1163 c-16 -43 -30 -84 -33 -90 -8 -23 13 -14 23 10 8 17 20 23
51 25 35 3 42 0 52 -23 6 -14 16 -25 21 -25 5 0 -3 33 -19 73 -15 39 -31 80
-34 90 -12 37 -34 15 -61 -60z m60 11 c8 -20 15 -40 15 -45 0 -10 -53 -12 -62
-3 -6 5 21 84 28 84 2 0 11 -16 19 -36z"/>
<path d="M2087 1233 c-11 -11 -8 -173 3 -173 6 0 10 30 10 70 0 39 3 70 8 70
6 0 31 -40 69 -112 8 -16 21 -28 29 -28 11 0 14 19 14 90 0 108 -18 122 -22
18 l-3 -73 -43 73 c-42 70 -51 79 -65 65z"/>
<path d="M2330 1225 c-16 -20 -14 -146 3 -157 6 -4 34 -8 62 -8 61 0 49 17
-15 22 -41 3 -45 6 -48 31 -3 26 -2 27 47 27 28 0 51 5 51 10 0 6 -23 10 -51
10 -49 0 -50 1 -47 28 3 25 7 27 51 30 26 2 47 7 47 13 0 15 -86 11 -100 -6z"/>
<path d="M2610 1166 c0 -84 -11 -99 -64 -89 -20 4 -27 2 -22 -6 8 -12 82 -15
89 -3 12 18 18 160 8 166 -8 5 -11 -16 -11 -68z"/>
<path d="M2773 1223 c-3 -10 -15 -40 -26 -68 -10 -27 -23 -60 -28 -72 -5 -15
-5 -23 2 -23 6 0 13 9 16 19 5 20 30 31 71 31 14 0 26 -9 34 -25 10 -22 28
-35 28 -20 0 6 -50 136 -59 154 -12 23 -30 25 -38 4z m36 -44 c17 -50 14 -59
-20 -59 -28 0 -31 2 -24 23 3 12 9 32 12 45 7 31 19 28 32 -9z"/>
<path d="M2960 1150 l0 -90 48 0 c72 0 92 19 92 86 0 72 -21 94 -90 94 l-50 0
0 -90z m109 56 c7 -8 11 -37 9 -68 l-3 -53 -47 -3 -48 -3 0 70 0 71 39 0 c21
0 44 -6 50 -14z"/>
<path d="M3207 1222 c-23 -25 -23 -124 -1 -146 25 -25 99 -21 118 6 23 33 21
113 -4 138 -26 26 -90 27 -113 2z m101 -14 c14 -14 16 -96 3 -116 -5 -9 -24
-12 -52 -10 l-44 3 -3 54 c-2 29 -1 60 2 67 7 17 77 19 94 2z"/>
<path d="M3442 1228 c-16 -16 -15 -65 1 -75 6 -4 30 -10 52 -13 35 -4 40 -9
43 -32 3 -28 2 -28 -52 -28 -31 0 -56 -4 -56 -10 0 -14 104 -12 118 2 16 16
15 65 0 75 -7 4 -31 10 -53 13 -35 4 -40 8 -40 30 0 23 4 25 48 28 26 2 45 7
42 13 -9 13 -89 11 -103 -3z"/>
</g>
</svg>
